Coordinates
version=1
nRows=54
nColumns=12
inDegrees=yes

Units are S.I. units (second, meters, Newtons, ...)
Angles are in degrees

endheader
time	SC_y	SC_z	SC_x	AC_y	AC_z	AC_x	GH_y	GH_z	GH_yy	EL_x	PS_y
       0.0              -29.54          36.39          58.43          67.46         -18.28          12.02         -114.8         -6.806          146.5          34.01          37.27
   0.04961              -29.54          36.39          58.44          67.46         -18.28          12.02         -114.8         -6.794          146.5          34.02          37.27
   0.09922              -29.54          36.39          58.44          67.46         -18.28          12.02         -114.8         -6.782          146.5          34.02          37.26
    0.1488              -29.55          36.39          58.44          67.46         -18.28          12.02         -114.8         -6.768          146.5          34.03          37.26
    0.1984              -29.55          36.39          58.45          67.46         -18.28          12.02         -114.8         -6.754          146.5          34.03          37.25
    0.2481              -29.55          36.39          58.45          67.46         -18.28          12.02         -114.8         -6.739          146.5          34.04          37.25
    0.2977              -29.56          36.39          58.46          67.46         -18.28          12.02         -114.8         -6.722          146.4          34.04          37.25
    0.3473              -29.56          36.39          58.46          67.46         -18.28          12.01         -114.7         -6.705          146.4          34.05          37.24
    0.3969              -29.56          36.39          58.47          67.45         -18.28          12.01         -114.7         -6.686          146.4          34.06          37.24
    0.4465              -29.57          36.39          58.47          67.45         -18.28          12.01         -114.7         -6.667          146.4          34.07          37.23
    0.4961              -29.57          36.39          58.48          67.45         -18.28          12.01         -114.7         -6.645          146.3          34.07          37.23
    0.5457              -29.58          36.39          58.49          67.45         -18.28          12.01         -114.7         -6.622          146.3          34.08          37.22
    0.5953              -29.58          36.39          58.49          67.45         -18.28           12.0         -114.7         -6.597          146.3          34.09          37.21
    0.6449              -29.59          36.39           58.5          67.45         -18.28           12.0         -114.7          -6.57          146.3           34.1          37.21
    0.6946              -29.59          36.39          58.51          67.45         -18.28           12.0         -114.6         -6.541          146.2          34.12           37.2
    0.7442               -29.6          36.39          58.52          67.44         -18.28          11.99         -114.6          -6.51          146.2          34.13          37.19
    0.7938               -29.6          36.39          58.53          67.44         -18.28          11.99         -114.6         -6.475          146.2          34.14          37.18
    0.8434              -29.61          36.39          58.54          67.44         -18.28          11.99         -114.6         -6.438          146.1          34.16          37.17
     0.893              -29.62          36.39          58.55          67.44         -18.28          11.98         -114.5         -6.397          146.1          34.17          37.16
    0.9426              -29.63          36.39          58.56          67.44         -18.28          11.98         -114.5         -6.353          146.0          34.19          37.15
    0.9922              -29.64          36.39          58.58          67.43         -18.28          11.97         -114.5         -6.304          146.0          34.21          37.13
     1.042              -29.65          36.39          58.59          67.43         -18.28          11.97         -114.4          -6.25          145.9          34.23          37.12
     1.091              -29.66           36.4          58.61          67.43         -18.28          11.96         -114.4          -6.19          145.9          34.26           37.1
     1.141              -29.67           36.4          58.63          67.42         -18.28          11.96         -114.3         -6.124          145.8          34.28          37.08
     1.191              -29.69           36.4          58.65          67.42         -18.28          11.95         -114.3         -6.051          145.7          34.31          37.07
      1.24               -29.7           36.4          58.67          67.41         -18.28          11.94         -114.2         -5.969          145.6          34.34          37.04
      1.29              -29.72           36.4           58.7          67.41         -18.28          11.93         -114.2         -5.877          145.5          34.38          37.02
      1.34              -29.74           36.4          58.73           67.4         -18.28          11.92         -114.1         -5.774          145.4          34.42          36.99
     1.389              -29.76           36.4          58.76           67.4         -18.28          11.91         -114.0         -5.657          145.3          34.47          36.96
     1.439              -29.79           36.4           58.8          67.39         -18.28           11.9         -113.9         -5.525          145.1          34.52          36.92
     1.488              -29.82          36.41          58.85          67.38         -18.28          11.88         -113.8         -5.374          145.0          34.58          36.88
     1.538              -29.85          36.41           58.9          67.37         -18.28          11.87         -113.7         -5.201          144.8          34.65          36.84
     1.588              -29.89          36.41          58.95          67.36         -18.28          11.85         -113.5           -5.0          144.6          34.73          36.78
     1.637              -29.93          36.42          59.02          67.35         -18.28          11.82         -113.4         -4.768          144.3          34.82          36.72
     1.687              -29.99          36.42           59.1          67.33         -18.28           11.8         -113.2         -4.496          144.0          34.93          36.65
     1.736              -30.05          36.42          59.19          67.31         -18.28          11.76         -112.9         -4.175          143.7          35.06          36.56
     1.786              -30.12          36.43           59.3          67.29         -18.28          11.73         -112.7         -3.794          143.3          35.21          36.46
     1.836              -30.21          36.44          59.43          67.27         -18.28          11.68         -112.3         -3.337          142.8          35.39          36.33
     1.885              -30.32          36.45          59.59          67.24         -18.28          11.63         -111.9         -2.784          142.2          35.61          36.18
     1.935              -30.45          36.46          59.79           67.2         -18.28          11.56         -111.4         -2.108          141.5          35.88           36.0
     1.984              -30.61          36.47          60.03          67.15         -18.29          11.48         -110.8         -1.275          140.6          36.21          35.78
     2.034              -30.81          36.48          60.33           67.1         -18.29          11.38         -110.1        -0.2352          139.4          36.62           35.5
     2.084              -31.06           36.5           60.7          67.02         -18.29          11.25         -109.2          1.074          138.0          37.14          35.14
     2.133              -31.38          36.53          61.18          66.93         -18.29          11.08         -108.0          2.739          136.2          37.81           34.7
     2.183              -31.79          36.56           61.8          66.81         -18.29          10.87         -106.4           4.87          133.9          38.65          34.12
     2.233              -32.32           36.6          62.59          66.66          -18.3           10.6         -104.5          7.604          131.0          39.74          33.38
     2.282              -32.99          36.65          63.59          66.46          -18.3          10.26         -101.9           11.1          127.2          41.13          32.44
     2.332              -33.84          36.71          64.86          66.22          -18.3          9.827         -98.78          15.49          122.5          42.88          31.26
     2.381              -34.87          36.79           66.4          65.92         -18.31            9.3         -94.93          20.84          116.7           45.0          29.82
     2.431              -36.07          36.89          68.19          65.58         -18.32          8.689         -90.46          27.04          110.0          47.47          28.14
     2.481              -37.36          36.98          70.12           65.2         -18.33          8.027         -85.63          33.76          102.7          50.14          26.33
      2.53              -38.65          37.08          72.06          64.83         -18.33          7.365         -80.79          40.48          95.47          52.81          24.52
      2.58              -39.85          37.18          73.85          64.48         -18.34          6.754         -76.33          46.68          88.78          55.28          22.85
     2.629              -40.88          37.25          75.39          64.19         -18.35          6.226         -72.48          52.03           83.0          57.41          21.41
